<svg width="30" height="35" viewBox="0 0 30 35" fill="none" xmlns="http://www.w3.org/2000/svg">
<path d="M14.625 3.875C22.6992 3.875 29.25 10.4258 29.25 18.5C29.25 21.1914 28.4883 23.7305 27.2188 25.8633C26.9648 26.3711 26.4062 26.625 25.8477 26.625H3.35156C2.79297 26.625 2.23438 26.3711 1.98047 25.8633C0.710938 23.7305 0 21.1914 0 18.5C0 10.4258 6.5 3.875 14.625 3.875ZM14.625 7.125C13.7109 7.125 13 7.88672 13 8.75C13 9.66406 13.7109 10.375 14.625 10.375C14.9297 10.375 15.2344 10.2734 15.4883 10.0703L15.9453 8.69922C15.9961 8.54688 16.0977 8.44531 16.1484 8.34375C15.9453 7.68359 15.3359 7.125 14.625 7.125ZM4.875 21.75C5.73828 21.75 6.5 21.0391 6.5 20.125C6.5 19.2617 5.73828 18.5 4.875 18.5C3.96094 18.5 3.25 19.2617 3.25 20.125C3.25 21.0391 3.96094 21.75 4.875 21.75ZM7.3125 13.625C8.17578 13.625 8.9375 12.9141 8.9375 12C8.9375 11.1367 8.17578 10.375 7.3125 10.375C6.39844 10.375 5.6875 11.1367 5.6875 12C5.6875 12.9141 6.39844 13.625 7.3125 13.625ZM19.8047 9.96875C20.0078 9.35938 19.7031 8.64844 19.043 8.44531C18.3828 8.19141 17.7227 8.54688 17.5195 9.20703L14.3711 18.5508C12.6953 18.6523 11.375 20.0742 11.375 21.75C11.375 22.3594 11.5273 22.918 11.7812 23.375H17.418C17.6719 22.918 17.875 22.3594 17.875 21.75C17.875 20.7852 17.418 19.9219 16.707 19.3125L19.8047 9.96875ZM20.5664 12.8633C20.8711 13.3203 21.3281 13.625 21.9375 13.6758C22.8008 13.6758 23.5625 12.9141 23.5625 12.0508C23.5625 11.1367 22.8008 10.4258 21.9375 10.4258C21.7344 10.4258 21.5312 10.4258 21.3281 10.5273L20.5664 12.8633ZM24.375 21.75C25.2383 21.75 26 21.0391 26 20.125C26 19.2617 25.2383 18.5 24.375 18.5C23.4609 18.5 22.75 19.2617 22.75 20.125C22.75 21.0391 23.4609 21.75 24.375 21.75Z" fill="white"/>
<path d="M18.0938 31.75C18.0938 33.4688 16.6758 34.8438 15 34.8438C13.2812 34.8438 11.9062 33.4688 11.9062 31.75C11.9062 30.0742 13.2812 28.6562 15 28.6562C16.6758 28.6562 18.0938 30.0742 18.0938 31.75ZM22.5625 28.6562C24.2383 28.6562 25.6562 30.0742 25.6562 31.75C25.6562 33.4688 24.2383 34.8438 22.5625 34.8438C20.8438 34.8438 19.4688 33.4688 19.4688 31.75C19.4688 30.0742 20.8438 28.6562 22.5625 28.6562ZM7.4375 28.6562C9.11328 28.6562 10.5312 30.0742 10.5312 31.75C10.5312 33.4688 9.11328 34.8438 7.4375 34.8438C5.71875 34.8438 4.34375 33.4688 4.34375 31.75C4.34375 30.0742 5.71875 28.6562 7.4375 28.6562Z" fill="white"/>
</svg>
