<svg width="32" height="32" viewBox="0 0 32 32" fill="none" xmlns="http://www.w3.org/2000/svg">
<path d="M1.24672 0C3.88026 1.56827 6.51301 3.1389 9.15046 4.69934C9.36412 4.82546 9.44238 4.95863 9.44238 5.2093C9.43456 11.9759 9.43612 18.7433 9.43612 25.5099C9.43612 25.6791 9.2522 25.7857 9.10664 25.6987C9.10585 25.6987 9.10507 25.6979 9.10351 25.6971C6.33223 24.0443 3.5633 22.389 0.788104 20.7416C0.475837 20.5568 0.194091 20.3555 0.0226962 20.0319C0.00782626 20.0022 0 19.9669 0 19.9317C0 13.5356 0 7.13949 0 0.743403C0 0.685435 0.0226962 0.629817 0.0641753 0.588299L0.567404 0.0853856L1.24672 0Z" fill="white"/>
<path d="M18.8738 0.38623V0.804542C18.8738 5.83916 18.8715 10.8738 18.8793 15.9084C18.8793 16.2264 18.8003 16.4763 18.6117 16.7356C17.5176 18.2397 16.9353 19.9286 17.0292 21.7906C17.0582 22.3711 16.8766 22.617 16.4141 22.8802C14.805 23.7968 13.2233 24.7611 11.6306 25.7074C11.543 25.7599 11.4522 25.8076 11.3293 25.8766C11.3223 25.7512 11.3121 25.6549 11.3121 25.5577C11.3121 18.7614 11.3121 11.965 11.3105 5.16939C11.3105 5.00019 11.3145 4.8678 11.4984 4.75891C13.8987 3.33948 16.2927 1.90907 18.6876 0.4818C18.7306 0.455949 18.7776 0.435582 18.8731 0.387014L18.8738 0.38623Z" fill="white"/>
<path d="M25.426 15.0435C29.1967 15.0341 32.2434 18.2756 31.9844 22.0341C31.8975 23.2977 31.4874 24.4508 30.7275 25.4754C29.2694 27.4408 27.8185 29.411 26.3643 31.3795C26.3276 31.4297 26.29 31.4798 26.2516 31.5299C25.768 32.1566 25.0902 32.1598 24.6144 31.5213C23.3144 29.776 22.0184 28.0276 20.7279 26.2744C20.3765 25.7974 20.0086 25.325 19.7191 24.8103C17.2718 20.458 20.4336 15.056 25.4244 15.0435H25.426ZM28.2458 21.6581C28.2904 20.1431 27.0468 18.8537 25.4909 18.8004C23.9797 18.7487 22.6899 19.9872 22.6289 21.5508C22.5694 23.0705 23.8372 24.3865 25.3986 24.4249C26.9137 24.4625 28.2004 23.2123 28.2458 21.6589V21.6581Z" fill="white"/>
<path d="M30.1084 14.5571C26.9873 12.6943 23.881 12.6935 20.7615 14.5594V0.408936C20.8397 0.445753 20.9117 0.471604 20.9751 0.509988C23.8294 2.22318 26.682 3.93873 29.5378 5.64879C29.9072 5.8697 30.124 6.16345 30.1232 6.60683C30.1209 9.2013 30.1225 11.7966 30.1217 14.391C30.1217 14.4396 30.1131 14.4882 30.1068 14.5563L30.1084 14.5571Z" fill="white"/>
</svg>
